<svg width="383" height="67" xmlns="http://www.w3.org/2000/svg">
 <style type="text/css">.st0{fill:#E92E2F;}
	.st1{fill:#313440;}</style>

 <g>
  <title>background</title>
  <rect fill="none" id="canvas_background" height="69" width="385" y="-1" x="-1"/>
 </g>
 <g>
  <title>Layer 1</title>
  <g id="svg_1">
   <path id="svg_2" d="m25.8,20.8l0,-20.3l-25.7,0l0,25.7l20.3,0l0,38.3l43.7,0l0,-43.7l-38.3,0zm-20.4,0l0,-15l15,0l0,15l-15,0zm53.3,38.3l-33,0l0,-33l33,0l0,33z" class="st0"/>
   <path id="svg_3" d="m88,64.5l-7.6,0l0,-53.2l18.6,0c7.1,0 11.2,1 14.7,3.8c3.3,2.7 5.3,7 5.3,12.1c0,4.9 -1.7,8.7 -4.9,11.6c-3.4,3 -7.2,4.1 -14.4,4.1l-11.7,0l0,21.6zm12.2,-27.8c4.1,0 6.6,-0.7 8.5,-2.5c1.9,-1.7 2.9,-4.1 2.9,-6.9c0,-2.7 -1,-5.2 -2.9,-6.9c-1.9,-1.8 -4.5,-2.5 -8.5,-2.5l-12.2,0l0,18.7l12.2,0l0,0.1z" class="st1"/>
   <path id="svg_4" d="m131.8,26l0,6.1c1.5,-2.2 2.2,-3.1 3.2,-4.1c1.8,-1.8 4.5,-3 6.9,-3c1.4,0 2.8,0.3 4.1,1l0,6.6c-1.5,-0.3 -2.3,-0.4 -3.3,-0.4c-5.9,0 -10.4,5.3 -10.4,12.1l0,20.2l-7.3,0l0,-38.5l6.8,0z" class="st1"/>
   <path id="svg_5" d="m184.9,45.5c0,11.8 -7.6,20 -18.6,20c-11,0 -18.5,-8.2 -18.5,-20.3c0,-12 7.5,-20.2 18.5,-20.2c11.3,0 18.6,8.1 18.6,20.5zm-29.6,-0.3c0,9 4.1,14.2 11.2,14.2c6.9,0 11.1,-5.2 11.1,-13.9c0,-9.2 -4,-14.3 -11.2,-14.3c-7,-0.1 -11.1,5.1 -11.1,14z" class="st1"/>
   <path id="svg_6" d="m200.2,57.9l27.7,0l0,6.6l-35.2,0l0,-53.2l7.6,0l0,46.6l-0.1,0z" class="st0"/>
   <path id="svg_7" d="m237.6,47c0.6,7.9 4.5,12.4 11.2,12.4c4.5,0 7.6,-2.2 9.3,-6.7l7,0c-1.8,8 -8,12.8 -16.5,12.8c-10.8,0 -18.3,-8.3 -18.3,-20.3c0,-12 7.3,-20.2 18.1,-20.2c7.7,0 13.2,4.1 15.8,11.5c1,2.9 1.4,6 1.5,10.6l-28.1,0l0,-0.1zm20.4,-5.3c-0.3,-7 -3.8,-10.9 -9.6,-10.9c-6,0 -10.3,4.5 -10.7,10.9l20.3,0z" class="st0"/>
   <path id="svg_8" d="m272,38.8c0.3,-4.5 1.2,-7.3 3.1,-9.4c2.5,-2.8 7.1,-4.4 12.5,-4.4c9.6,0 15,4.5 15,12.5l0,18.1c0,3 0.4,3.7 2.1,3.7c0.6,0 1,-0.1 1.9,-0.4l0,5.7c-1.8,0.4 -3.3,0.6 -4.8,0.6c-3.5,0 -5.1,-1.5 -5.7,-5.2c-3.9,3.9 -8.1,5.7 -13.3,5.7c-7.5,0 -12.6,-4.6 -12.6,-11.4c0,-6.2 3.8,-10 11.6,-11.6l8.5,-1.7c4.6,-0.9 5.6,-1.6 5.6,-4c0,-3.7 -3.3,-6.1 -8.4,-6.1c-3.7,0 -6.7,1.2 -7.7,3.3c-0.6,1 -0.7,1.9 -0.9,4.7l-6.9,0l0,-0.1zm24,5.9c-1.4,0.6 -2.6,1 -4.5,1.4l-7.5,1.8c-4.5,1 -6.5,2.9 -6.5,5.9c0,3.5 2.9,5.9 7.2,5.9c6.2,0 11.3,-4.5 11.3,-10l0,-5z" class="st0"/>
   <path id="svg_9" d="m333.9,37.8c-1,-4.8 -3.7,-6.8 -8.8,-6.8c-4.4,0 -7.3,1.8 -7.3,4.5c0,1.9 1.4,3.2 4.5,4l8.9,2.3c8,2.1 11.4,5.4 11.4,11.3c0,7.6 -6.2,12.4 -16,12.4c-10.4,0 -16.7,-5.1 -17.5,-14.3l7.3,0c0.4,5.1 4.2,8.1 10.4,8.1c5.3,0 8.7,-2.3 8.7,-5.9c0,-2.5 -1.7,-3.9 -6.1,-5.1l-7.7,-1.9c-4.1,-1 -6.5,-2.2 -8.1,-3.6c-1.8,-1.5 -2.9,-4.1 -2.9,-6.6c0,-6.6 6.1,-11.3 14.8,-11.3c5.5,0 10,1.8 12.8,5.1c1.7,2.1 2.4,4.1 2.7,7.7l-7.1,0l0,0.1z" class="st0"/>
   <path id="svg_10" d="m353.9,47c0.6,7.9 4.5,12.4 11.2,12.4c4.5,0 7.6,-2.2 9.3,-6.7l7,0c-1.8,8 -8,12.8 -16.5,12.8c-10.8,0 -18.3,-8.3 -18.3,-20.3c0,-12 7.3,-20.2 18.1,-20.2c7.7,0 13.2,4.1 15.8,11.5c1,2.9 1.4,6 1.5,10.6l-28.1,0l0,-0.1zm20.4,-5.3c-0.3,-7 -3.8,-10.9 -9.6,-10.9c-6,0 -10.3,4.5 -10.7,10.9l20.3,0z" class="st0"/>
  </g>
 </g>
</svg>